STARTFONT 2.3
FONT -FontForge-Zen Tokyo Zoo-Book-R-Normal--18-180-72-72-P-84-ISO10646-1
SIZE 18 72 72  4
FONTBOUNDINGBOX 24 26 -2 -5
COMMENT "Generated by fontforge, http://fontforge.sourceforge.net"
COMMENT "Copyright 2021 The Zen Tokyo Zoo Project Authors (https://github.com/googlefonts/zen-tokyo-zoo)"
STARTPROPERTIES 40
FOUNDRY "FontForge"
FAMILY_NAME "Zen Tokyo Zoo"
WEIGHT_NAME "Book"
SLANT "R"
SETWIDTH_NAME "Normal"
ADD_STYLE_NAME ""
PIXEL_SIZE 18
POINT_SIZE 180
RESOLUTION_X 72
RESOLUTION_Y 72
SPACING "P"
AVERAGE_WIDTH 84
CHARSET_REGISTRY "ISO10646"
CHARSET_ENCODING "1"
FONTNAME_REGISTRY ""
CHARSET_COLLECTIONS "ISO10646-1"
BITS_PER_PIXEL 4
FONT_NAME "ZenTokyoZoo-Regular"
FACE_NAME "Zen Tokyo Zoo Regular"
COPYRIGHT "Copyright 2021 The Zen Tokyo Zoo Project Authors (https://github.com/googlefonts/zen-tokyo-zoo)"
FONT_VERSION "1.002; ttfautohint (v1.8.3)"
FONT_ASCENT 14
FONT_DESCENT 4
UNDERLINE_POSITION -3
UNDERLINE_THICKNESS 1
X_HEIGHT 7
CAP_HEIGHT 15
RAW_ASCENT 800
RAW_DESCENT 200
NORM_SPACE 5
RELATIVE_WEIGHT 40
RELATIVE_SETWIDTH 50
SUPERSCRIPT_X 0
SUPERSCRIPT_Y 6
SUPERSCRIPT_SIZE 10
SUBSCRIPT_X 0
SUBSCRIPT_Y 1
SUBSCRIPT_SIZE 10
AVG_LOWERCASE_WIDTH 74
AVG_UPPERCASE_WIDTH 136
ENDPROPERTIES
CHARS 338
STARTCHAR CR
ENCODING 13
SWIDTH 600 0
DWIDTH 11 0
BBX 1 1 0 0
BITMAP
00
ENDCHAR
STARTCHAR space
ENCODING 32
SWIDTH 280 0
DWIDTH 5 0
BBX 1 1 0 0
BITMAP
00
ENDCHAR
STARTCHAR exclam
ENCODING 33
SWIDTH 196 0
DWIDTH 4 0
BBX 3 8 0 0
BITMAP
1780
1780
1780
1780
1780
1450
1450
1780
ENDCHAR
STARTCHAR quotedbl
ENCODING 34
SWIDTH 302 0
DWIDTH 5 0
BBX 5 3 0 5
BITMAP
853880
853880
431440
ENDCHAR
STARTCHAR numbersign
ENCODING 35
SWIDTH 513 0
DWIDTH 9 0
BBX 9 8 0 0
BITMAP
0045744500
0575799930
0585699930
0054133000
1999588500
1999588600
0123368000
0358556000
ENDCHAR
STARTCHAR dollar
ENCODING 36
SWIDTH 379 0
DWIDTH 7 0
BBX 7 10 0 -1
BITMAP
00040000
01384100
19283900
65675310
46884000
06955900
0006A630
44586630
1A485800
00181000
ENDCHAR
STARTCHAR percent
ENCODING 37
SWIDTH 493 0
DWIDTH 9 0
BBX 9 8 0 0
BITMAP
1996055700
7478188000
6689764000
0897680000
0008779700
0065788640
0178279550
0873079900
ENDCHAR
STARTCHAR ampersand
ENCODING 38
SWIDTH 487 0
DWIDTH 9 0
BBX 8 8 1 0
BITMAP
03988000
08696400
08946500
08566100
64982662
97469190
96585700
59949740
ENDCHAR
STARTCHAR quotesingle
ENCODING 39
SWIDTH 146 0
DWIDTH 3 0
BBX 3 3 0 5
BITMAP
8530
8530
4310
ENDCHAR
STARTCHAR parenleft
ENCODING 40
SWIDTH 210 0
DWIDTH 4 0
BBX 4 9 0 0
BITMAP
0873
0880
3570
5550
6540
5550
3570
0880
0873
ENDCHAR
STARTCHAR parenright
ENCODING 41
SWIDTH 210 0
DWIDTH 4 0
BBX 4 9 0 0
BITMAP
6650
1880
0880
0862
0853
0862
0880
1880
6650
ENDCHAR
STARTCHAR asterisk
ENCODING 42
SWIDTH 358 0
DWIDTH 6 0
BBX 5 5 1 3
BITMAP
066000
642620
610430
463700
142300
ENDCHAR
STARTCHAR plus
ENCODING 43
SWIDTH 394 0
DWIDTH 7 0
BBX 7 6 0 1
BITMAP
00344000
00556000
29556830
29556830
00556000
00556000
ENDCHAR
STARTCHAR comma
ENCODING 44
SWIDTH 216 0
DWIDTH 4 0
BBX 4 3 0 -1
BITMAP
0431
0880
2680
ENDCHAR
STARTCHAR hyphen
ENCODING 45
SWIDTH 326 0
DWIDTH 6 0
BBX 5 2 0 3
BITMAP
199980
199980
ENDCHAR
STARTCHAR period
ENCODING 46
SWIDTH 176 0
DWIDTH 3 0
BBX 3 2 0 0
BITMAP
2340
4570
ENDCHAR
STARTCHAR slash
ENCODING 47
SWIDTH 298 0
DWIDTH 5 0
BBX 5 8 0 0
BITMAP
003690
007560
009810
017900
065700
087200
189000
558000
ENDCHAR
STARTCHAR zero
ENCODING 48
SWIDTH 306 0
DWIDTH 6 0
BBX 5 8 0 0
BITMAP
088930
459690
754880
754880
754880
754880
459690
088930
ENDCHAR
STARTCHAR one
ENCODING 49
SWIDTH 306 0
DWIDTH 6 0
BBX 5 8 0 0
BITMAP
194680
194680
002680
002680
002680
002680
002680
002680
ENDCHAR
STARTCHAR two
ENCODING 50
SWIDTH 299 0
DWIDTH 5 0
BBX 5 8 0 0
BITMAP
089930
469590
114790
019550
094800
235000
4AAA70
4AAA70
ENDCHAR
STARTCHAR three
ENCODING 51
SWIDTH 324 0
DWIDTH 6 0
BBX 6 8 0 0
BITMAP
078860
449772
102444
001840
001791
314844
368772
078860
ENDCHAR
STARTCHAR four
ENCODING 52
SWIDTH 339 0
DWIDTH 6 0
BBX 6 8 0 0
BITMAP
007380
008720
064800
096300
011448
499448
499448
000448
ENDCHAR
STARTCHAR five
ENCODING 53
SWIDTH 363 0
DWIDTH 7 0
BBX 5 8 1 0
BITMAP
588840
588840
431000
874500
872550
223680
849470
298910
ENDCHAR
STARTCHAR six
ENCODING 54
SWIDTH 306 0
DWIDTH 6 0
BBX 5 8 0 0
BITMAP
088930
459690
754110
756810
755390
755980
459690
088930
ENDCHAR
STARTCHAR seven
ENCODING 55
SWIDTH 298 0
DWIDTH 5 0
BBX 5 8 0 0
BITMAP
399970
399970
000110
005560
008620
008800
026800
065500
ENDCHAR
STARTCHAR eight
ENCODING 56
SWIDTH 306 0
DWIDTH 6 0
BBX 5 8 0 0
BITMAP
088930
459690
656690
287640
159670
643980
459690
088930
ENDCHAR
STARTCHAR nine
ENCODING 57
SWIDTH 306 0
DWIDTH 6 0
BBX 5 8 0 0
BITMAP
088930
459690
656880
364880
056880
111880
558690
088930
ENDCHAR
STARTCHAR colon
ENCODING 58
SWIDTH 176 0
DWIDTH 3 0
BBX 3 5 0 0
BITMAP
2340
4570
0000
2340
4570
ENDCHAR
STARTCHAR semicolon
ENCODING 59
SWIDTH 217 0
DWIDTH 4 0
BBX 4 6 0 -1
BITMAP
0532
0853
0000
0431
0880
2680
ENDCHAR
STARTCHAR less
ENCODING 60
SWIDTH 450 0
DWIDTH 8 0
BBX 8 9 0 -1
BITMAP
00000012
00000592
00039583
00644920
19486000
00784940
00018764
00000393
00000001
ENDCHAR
STARTCHAR equal
ENCODING 61
SWIDTH 344 0
DWIDTH 6 0
BBX 6 5 0 1
BITMAP
299994
299994
000000
299994
299994
ENDCHAR
STARTCHAR greater
ENCODING 62
SWIDTH 450 0
DWIDTH 8 0
BBX 8 8 0 0
BITMAP
23000000
17810000
29486000
00784940
00148751
06956200
35870000
39200000
ENDCHAR
STARTCHAR question
ENCODING 63
SWIDTH 346 0
DWIDTH 6 0
BBX 5 8 1 0
BITMAP
599700
979720
228540
038820
085600
088000
033000
088000
ENDCHAR
STARTCHAR at
ENCODING 64
SWIDTH 490 0
DWIDTH 9 0
BBX 9 8 0 0
BITMAP
007DCC6000
0890019700
3A15675920
6757093940
66668A3920
2586687500
0737771000
0066683000
ENDCHAR
STARTCHAR A
ENCODING 65
SWIDTH 798 0
DWIDTH 14 0
BBX 14 16 0 0
BITMAP
00000855800000
00000896640000
00003688180000
00008558780000
00008864863000
00036986558000
00085583689000
00098630986300
00369800855800
00755800368900
00985599498630
03698599885580
07568000045890
09854899939863
26980000008557
75680000004589
ENDCHAR
STARTCHAR B
ENCODING 66
SWIDTH 784 0
DWIDTH 14 0
BBX 14 16 0 0
BITMAP
17885999997000
17885999995900
17880000009660
17885999981880
17880000027880
17880000027880
17885999999280
17885999993550
17880000005881
17885999995446
17880000007547
17880000006557
17880000009755
17885999997880
17885999996740
17885999999300
ENDCHAR
STARTCHAR C
ENCODING 67
SWIDTH 776 0
DWIDTH 14 0
BBX 14 16 0 0
BITMAP
00002888888300
00067588885681
00759788886A41
03696810018520
09658000000100
17981000000000
55780000000000
65570000000000
65570000000000
55780000000000
17981000000000
09658000000100
03696810018610
00759788886941
00067488885581
00002888888300
ENDCHAR
STARTCHAR D
ENCODING 68
SWIDTH 806 0
DWIDTH 15 0
BBX 14 16 0 0
BITMAP
17885999950000
1788599975A200
17880000395920
17885999607590
17880000491964
17880000019458
17880000006389
17880000001788
17880000000888
17880000001789
17880000006768
17880000019964
178800004A9590
17885999895920
1788599975A200
17885999960000
ENDCHAR
STARTCHAR E
ENCODING 69
SWIDTH 677 0
DWIDTH 12 0
BBX 12 16 0 0
BITMAP
178859999996
178859999996
178800000000
178859999996
178800000000
178800000000
178859999950
178800000000
178859999950
178859999950
178800000000
178800000000
178800000000
178859999996
178859999996
178859999996
ENDCHAR
STARTCHAR F
ENCODING 70
SWIDTH 677 0
DWIDTH 12 0
BBX 12 16 0 0
BITMAP
178859999996
178859999996
178800000000
178859999996
178800000000
178800000000
178859999950
178800000000
178859999950
178859999950
178800000000
178800000000
178800000000
178800000000
178800000000
178800000000
ENDCHAR
STARTCHAR G
ENCODING 71
SWIDTH 872 0
DWIDTH 16 0
BBX 16 16 0 0
BITMAP
0000288888830000
0006758888568000
0075978888794900
036968100186A530
0965800000074200
1798100000000000
5578000000000000
6557000088888881
6557000088888881
5578000000000000
1798100088888881
0965800000053560
0369681001779470
0075978888794900
0006748888568100
0000288888830000
ENDCHAR
STARTCHAR H
ENCODING 72
SWIDTH 781 0
DWIDTH 14 0
BBX 14 16 0 0
BITMAP
17880000008862
17880000008862
17880000008862
17880000008862
17880000008862
17880000008862
17885999958862
17880000008862
17885999958862
17885999958862
17880000008862
17880000008862
17880000008862
17880000008862
17880000008862
17880000008862
ENDCHAR
STARTCHAR I
ENCODING 73
SWIDTH 262 0
DWIDTH 5 0
BBX 4 16 0 0
BITMAP
1788
1788
1788
1788
1788
1788
1788
1788
1788
1788
1788
1788
1788
1788
1788
1788
ENDCHAR
STARTCHAR J
ENCODING 74
SWIDTH 674 0
DWIDTH 12 0
BBX 12 16 0 0
BITMAP
000000008854
000000008854
000000008854
000000008854
000000008854
000000008854
000000008854
000000008854
000000008854
000000008854
865500008863
756700009871
369830076790
095889979640
029488866700
001788894000
ENDCHAR
STARTCHAR K
ENCODING 75
SWIDTH 739 0
DWIDTH 13 0
BBX 13 16 0 0
BITMAP
17880000198480
17880000947910
17880005596400
17880019748000
17880084791000
17880229640000
17881563800000
17883884100000
17889659000000
17883795700000
17880749730000
17880095691000
17880028848000
178800065A6500
17880000948910
17880000197590
ENDCHAR
STARTCHAR L
ENCODING 76
SWIDTH 604 0
DWIDTH 11 0
BBX 11 16 0 0
BITMAP
178800000000
178800000000
178800000000
178800000000
178800000000
178800000000
178800000000
178800000000
178800000000
178800000000
178800000000
178800000000
178800000000
178859999950
178859999950
178859999950
ENDCHAR
STARTCHAR M
ENCODING 77
SWIDTH 909 0
DWIDTH 16 0
BBX 16 16 0 0
BITMAP
1788000000007557
1788300000057557
1788550000287557
1788192000937557
1788749005597557
17881A4619737557
1788648864787557
1788287497557557
1788073937807557
1788009283007557
1788003751007557
1788000720007557
1788000020007557
1788000000007557
1788000000007557
1788000000007557
ENDCHAR
STARTCHAR N
ENCODING 78
SWIDTH 796 0
DWIDTH 14 0
BBX 14 16 0 0
BITMAP
17880000007556
17885000007556
17883600007556
17883820007556
17886590007556
17881955007556
17886479107556
17881974807556
17880559737556
17880095697556
17880028837556
17880006597556
17880000947556
17880000377556
17880000067556
17880000007556
ENDCHAR
STARTCHAR O
ENCODING 79
SWIDTH 894 0
DWIDTH 16 0
BBX 16 16 0 0
BITMAP
0000288888820000
0006758888577000
0075978888795800
0369681001879650
0965800000075790
1798100000009962
5578000000008656
6557000000006558
6557000000006558
5578000000008656
1798100000008963
0965800000075790
0369681001769650
0075978888794800
0006748888577000
0000288888820000
ENDCHAR
STARTCHAR P
ENCODING 80
SWIDTH 743 0
DWIDTH 13 0
BBX 13 16 0 0
BITMAP
17885999997000
17885999995900
17880000009660
17885999981880
17880000027880
17880000027880
17885999999280
17885999993540
17880000005800
17885999995000
17880000000000
17880000000000
17880000000000
17880000000000
17880000000000
17880000000000
ENDCHAR
STARTCHAR Q
ENCODING 81
SWIDTH 911 0
DWIDTH 16 0
BBX 16 16 0 0
BITMAP
0000288888820000
0006758888577000
0075978888795700
0369681001879640
0965800000075790
1798100000009972
5578000000008656
6557000000007557
6557000000007558
5578000000096556
1798100000849664
0965800007494870
0369681000849570
0075978888284956
0006748888659491
0000288899820910
ENDCHAR
STARTCHAR R
ENCODING 82
SWIDTH 745 0
DWIDTH 13 0
BBX 13 16 0 0
BITMAP
17885999997000
17885999995900
17880000009660
17885999981880
17880000027880
17880000027880
17885999999280
17885999993540
17880000005800
17885999995000
17880005434000
17880006579000
17880001896300
17880000856900
17880000279720
17880000086580
ENDCHAR
STARTCHAR S
ENCODING 83
SWIDTH 660 0
DWIDTH 12 0
BBX 12 16 0 0
BITMAP
001788897100
029488984920
096888878590
368920037950
556900003000
549693000000
196727A71000
068399439600
004A72596670
000038A54881
000000058854
000200008655
347910038972
187788888590
057488884910
002888887000
ENDCHAR
STARTCHAR T
ENCODING 84
SWIDTH 641 0
DWIDTH 12 0
BBX 12 16 0 0
BITMAP
799999999993
799999999993
000000000000
799999999993
000054320000
000087540000
000087540000
000087540000
000087540000
000087540000
000087540000
000087540000
000087540000
000087540000
000087540000
000087540000
ENDCHAR
STARTCHAR U
ENCODING 85
SWIDTH 702 0
DWIDTH 13 0
BBX 12 16 0 0
BITMAP
178800003588
178800003588
178800003588
178800003588
178800003588
178800003588
178800003588
178800003588
178800003588
178800003588
178800003588
088810006668
086680029854
037979888590
006768884920
000398888100
ENDCHAR
STARTCHAR V
ENCODING 86
SWIDTH 758 0
DWIDTH 14 0
BBX 14 16 0 0
BITMAP
75680000008972
36990000055890
09863000086570
08558000089720
04589000558900
00897200865700
00965600897200
00557905579000
00189818657000
00097554972000
00075681790000
00027981460000
00009854720000
00008558200000
00003688000000
00000996300000
ENDCHAR
STARTCHAR W
ENCODING 87
SWIDTH 972 0
DWIDTH 18 0
BBX 18 16 0 0
BITMAP
855700075580008881
557800088540045880
178800088810075570
088620458820087540
086560755780188800
065680885472458800
026880888355755700
008872589368575400
008754457189088000
007558754788178000
004588280975427000
001888090855744000
000886350457940000
000865600188800000
000557800098630000
000278800086560000
ENDCHAR
STARTCHAR X
ENCODING 88
SWIDTH 712 0
DWIDTH 13 0
BBX 13 16 0 0
BITMAP
18955000747900
08479001895500
01895607479000
00748927954000
00198474690000
00064894630000
00009847600000
00006588100000
00002974800000
00036559810000
00095397480000
00469646982000
00965809648000
05598204697200
09748000965900
65891000379630
ENDCHAR
STARTCHAR Y
ENCODING 89
SWIDTH 769 0
DWIDTH 14 0
BBX 14 16 0 0
BITMAP
74891000027955
19748000095690
05597300559730
00955901974800
00279557489100
00084792946000
00019748390000
00006598430000
00000431400000
00000644500000
00000855600000
00000855600000
00000855600000
00000855600000
00000855600000
00000855600000
ENDCHAR
STARTCHAR Z
ENCODING 90
SWIDTH 708 0
DWIDTH 13 0
BBX 13 16 0 0
BITMAP
05999999479640
05999994955900
00000004697300
05999979648000
00000055981000
00000198470000
00000747900000
00001895500000
00008569000000
00037963000000
00096590000000
00469720000000
00974800000000
06588299999200
19856799999200
84795999999200
ENDCHAR
STARTCHAR bracketleft
ENCODING 91
SWIDTH 320 0
DWIDTH 6 0
BBX 5 9 0 -1
BITMAP
156770
178770
178000
178000
178000
178000
178000
178770
156770
ENDCHAR
STARTCHAR backslash
ENCODING 92
SWIDTH 298 0
DWIDTH 5 0
BBX 5 8 0 0
BITMAP
558000
189000
087200
065700
017900
009810
007560
003690
ENDCHAR
STARTCHAR bracketright
ENCODING 93
SWIDTH 320 0
DWIDTH 6 0
BBX 5 9 0 -1
BITMAP
185660
185880
000880
000880
000880
000880
000880
185880
185660
ENDCHAR
STARTCHAR asciicircum
ENCODING 94
SWIDTH 309 0
DWIDTH 6 0
BBX 4 4 1 4
BITMAP
0200
0910
4590
9656
ENDCHAR
STARTCHAR underscore
ENCODING 95
SWIDTH 472 0
DWIDTH 9 0
BBX 8 2 0 0
BITMAP
19999995
19999995
ENDCHAR
STARTCHAR grave
ENCODING 96
SWIDTH 195 0
DWIDTH 4 0
BBX 2 2 1 9
BITMAP
90
45
ENDCHAR
STARTCHAR a
ENCODING 97
SWIDTH 414 0
DWIDTH 7 0
BBX 8 8 0 0
BITMAP
0055C000
00979200
018B5700
05598900
08639720
18A9B570
55B99790
86200872
ENDCHAR
STARTCHAR b
ENCODING 98
SWIDTH 423 0
DWIDTH 8 0
BBX 8 8 0 0
BITMAP
45C99920
45C99590
45700880
45C99B90
45C997A0
45700981
45C99690
45C99940
ENDCHAR
STARTCHAR c
ENCODING 99
SWIDTH 446 0
DWIDTH 8 0
BBX 8 8 0 0
BITMAP
00798860
08489853
26910230
65500000
65500000
26910230
08488753
00788860
ENDCHAR
STARTCHAR d
ENCODING 100
SWIDTH 450 0
DWIDTH 8 0
BBX 8 8 0 0
BITMAP
45C99810
45C99490
45701954
45700458
45700458
45701954
45C99490
45C99810
ENDCHAR
STARTCHAR e
ENCODING 101
SWIDTH 363 0
DWIDTH 7 0
BBX 7 8 0 0
BITMAP
45C99920
45C99920
45700000
45C99600
45C99600
45700000
45C99920
45C99920
ENDCHAR
STARTCHAR f
ENCODING 102
SWIDTH 365 0
DWIDTH 7 0
BBX 7 8 0 0
BITMAP
45C99920
45C99920
45700000
45C99600
45C99600
45700000
45700000
45700000
ENDCHAR
STARTCHAR g
ENCODING 103
SWIDTH 483 0
DWIDTH 9 0
BBX 9 8 0 0
BITMAP
0079896000
0848985500
2691014000
6550288810
655028AA20
2691047900
0848867400
0078894000
ENDCHAR
STARTCHAR h
ENCODING 104
SWIDTH 428 0
DWIDTH 8 0
BBX 7 8 0 0
BITMAP
45700880
45700880
45700880
45C99A80
45C99A80
45700880
45700880
45700880
ENDCHAR
STARTCHAR i
ENCODING 105
SWIDTH 176 0
DWIDTH 3 0
BBX 3 8 0 0
BITMAP
4570
4570
4570
4570
4570
4570
4570
4570
ENDCHAR
STARTCHAR j
ENCODING 106
SWIDTH 390 0
DWIDTH 7 0
BBX 7 8 0 0
BITMAP
00006540
00006540
00006540
00006540
00006540
65608530
28685900
04989300
ENDCHAR
STARTCHAR k
ENCODING 107
SWIDTH 381 0
DWIDTH 7 0
BBX 7 8 0 0
BITMAP
45709730
45755900
45797200
45A88000
45A94000
45C5A000
45794800
45719650
ENDCHAR
STARTCHAR l
ENCODING 108
SWIDTH 330 0
DWIDTH 6 0
BBX 6 8 0 0
BITMAP
457000
457000
457000
457000
457000
457000
45C996
45C996
ENDCHAR
STARTCHAR m
ENCODING 109
SWIDTH 501 0
DWIDTH 9 0
BBX 9 8 0 0
BITMAP
45C000C540
45A707A540
45B777A540
45B6B7B540
4578477540
4570707540
4570007540
4570007540
ENDCHAR
STARTCHAR n
ENCODING 110
SWIDTH 444 0
DWIDTH 8 0
BBX 8 8 0 0
BITMAP
45C00754
45B60754
45992754
45C59754
45795C54
45728A54
45706A54
45700C54
ENDCHAR
STARTCHAR o
ENCODING 111
SWIDTH 494 0
DWIDTH 9 0
BBX 9 8 0 0
BITMAP
0079896000
0848885700
2691029810
6550007540
6550007540
2691028810
0848885700
0078886000
ENDCHAR
STARTCHAR p
ENCODING 112
SWIDTH 412 0
DWIDTH 7 0
BBX 7 8 0 0
BITMAP
45B88920
45B89580
45700980
45B89680
45B88810
45700000
45700000
45700000
ENDCHAR
STARTCHAR q
ENCODING 113
SWIDTH 494 0
DWIDTH 9 0
BBX 9 8 0 0
BITMAP
0079896000
0848885700
2691029710
6550007540
655002A540
2691169A10
0848896920
0078899400
ENDCHAR
STARTCHAR r
ENCODING 114
SWIDTH 412 0
DWIDTH 7 0
BBX 7 8 0 0
BITMAP
45B88920
45B89580
45700980
45B89680
45B9AB10
45718900
45709630
45705580
ENDCHAR
STARTCHAR s
ENCODING 115
SWIDTH 379 0
DWIDTH 7 0
BBX 7 8 0 0
BITMAP
05988400
37886910
65812100
29589200
02894910
11109540
46887810
06889400
ENDCHAR
STARTCHAR t
ENCODING 116
SWIDTH 349 0
DWIDTH 6 0
BBX 7 8 0 0
BITMAP
79999910
79AA9910
00880000
00880000
00880000
00880000
00880000
00880000
ENDCHAR
STARTCHAR u
ENCODING 117
SWIDTH 400 0
DWIDTH 7 0
BBX 7 8 0 0
BITMAP
45704570
45704570
45704570
45704570
45704570
36806560
09586820
02989400
ENDCHAR
STARTCHAR v
ENCODING 118
SWIDTH 394 0
DWIDTH 7 0
BBX 7 8 0 0
BITMAP
86301780
55706570
17908620
09728900
075A5800
027C6300
00989000
00859000
ENDCHAR
STARTCHAR w
ENCODING 119
SWIDTH 521 0
DWIDTH 9 0
BBX 10 8 0 0
BITMAP
8712690871
75555B0890
35886B3680
088996A560
0887C5D720
0756979900
045C488900
018C086600
ENDCHAR
STARTCHAR x
ENCODING 120
SWIDTH 369 0
DWIDTH 7 0
BBX 7 8 0 0
BITMAP
65809810
09784800
065B8100
00A78000
01C59000
075C7300
18955900
85609630
ENDCHAR
STARTCHAR y
ENCODING 121
SWIDTH 422 0
DWIDTH 8 0
BBX 8 8 0 0
BITMAP
74801982
19738470
046A7900
0095B400
00135000
00178000
00178000
00178000
ENDCHAR
STARTCHAR z
ENCODING 122
SWIDTH 409 0
DWIDTH 7 0
BBX 7 8 0 0
BITMAP
29999960
2999B970
00047920
00297400
01A57000
09490000
3AA99960
29999960
ENDCHAR
STARTCHAR braceleft
ENCODING 123
SWIDTH 443 0
DWIDTH 8 0
BBX 8 9 0 -1
BITMAP
00066581
00088581
00088000
18588000
18588000
00088000
00088000
00088581
00066581
ENDCHAR
STARTCHAR bar
ENCODING 124
SWIDTH 196 0
DWIDTH 4 0
BBX 3 9 0 0
BITMAP
1780
1780
1780
1780
1780
1780
1780
1780
1780
ENDCHAR
STARTCHAR braceright
ENCODING 125
SWIDTH 506 0
DWIDTH 9 0
BBX 7 9 2 -1
BITMAP
86660000
86880000
00880000
00884820
00884820
00880000
00880000
86880000
86660000
ENDCHAR
STARTCHAR asciitilde
ENCODING 126
SWIDTH 450 0
DWIDTH 8 0
BBX 8 3 0 2
BITMAP
18972013
29983044
22018992
ENDCHAR
STARTCHAR uni00A0
ENCODING 160
SWIDTH 280 0
DWIDTH 5 0
BBX 1 1 0 0
BITMAP
00
ENDCHAR
STARTCHAR exclamdown
ENCODING 161
SWIDTH 196 0
DWIDTH 4 0
BBX 3 8 0 -2
BITMAP
1450
1780
1450
1780
1780
1780
1780
1780
ENDCHAR
STARTCHAR cent
ENCODING 162
SWIDTH 305 0
DWIDTH 5 0
BBX 6 10 0 -2
BITMAP
008800
04AB50
499971
992110
880000
882110
399971
049950
008800
001100
ENDCHAR
STARTCHAR sterling
ENCODING 163
SWIDTH 408 0
DWIDTH 7 0
BBX 7 8 0 0
BITMAP
29997000
84985500
10011000
9AAAA100
9AAAA100
05500000
9AAAAA80
9AAAAA80
ENDCHAR
STARTCHAR currency
ENCODING 164
SWIDTH 401 0
DWIDTH 7 0
BBX 7 7 0 0
BITMAP
05401700
36697360
02797400
02797400
25697350
15401710
01000100
ENDCHAR
STARTCHAR yen
ENCODING 165
SWIDTH 423 0
DWIDTH 8 0
BBX 8 8 0 0
BITMAP
74901982
09638470
046A7910
0094B400
00135000
09378660
09378660
00178000
ENDCHAR
STARTCHAR brokenbar
ENCODING 166
SWIDTH 196 0
DWIDTH 4 0
BBX 3 9 0 0
BITMAP
1340
1780
1780
1780
0000
1340
1780
1780
1780
ENDCHAR
STARTCHAR section
ENCODING 167
SWIDTH 322 0
DWIDTH 6 0
BBX 6 8 0 0
BITMAP
0BFF91
57A400
261680
566763
647883
195181
005B82
2BFF80
ENDCHAR
STARTCHAR dieresis
ENCODING 168
SWIDTH 287 0
DWIDTH 5 0
BBX 4 2 1 9
BITMAP
D0B2
1010
ENDCHAR
STARTCHAR copyright
ENCODING 169
SWIDTH 493 0
DWIDTH 9 0
BBX 9 9 0 0
BITMAP
0038882000
0570018300
1900000900
5407860630
6246020440
5446020630
1907860900
0570018300
0038882000
ENDCHAR
STARTCHAR ordfeminine
ENCODING 170
SWIDTH 331 0
DWIDTH 6 0
BBX 4 3 1 4
BITMAP
29A2
7786
8998
ENDCHAR
STARTCHAR guillemotleft
ENCODING 171
SWIDTH 298 0
DWIDTH 5 0
BBX 5 4 0 2
BITMAP
023140
182820
235440
083750
ENDCHAR
STARTCHAR logicalnot
ENCODING 172
SWIDTH 420 0
DWIDTH 8 0
BBX 7 4 0 1
BITMAP
29999970
29999970
00000440
00000880
ENDCHAR
STARTCHAR uni00AD
ENCODING 173
SWIDTH 326 0
DWIDTH 6 0
BBX 5 2 0 3
BITMAP
199980
199980
ENDCHAR
STARTCHAR registered
ENCODING 174
SWIDTH 493 0
DWIDTH 9 0
BBX 9 9 0 0
BITMAP
0038882000
0570018300
1900000900
5409890630
6209990440
5408180630
1908090900
0570018300
0038882000
ENDCHAR
STARTCHAR macron
ENCODING 175
SWIDTH 331 0
DWIDTH 6 0
BBX 6 1 0 9
BITMAP
199991
ENDCHAR
STARTCHAR degree
ENCODING 176
SWIDTH 298 0
DWIDTH 5 0
BBX 5 4 0 4
BITMAP
059800
188560
188560
059800
ENDCHAR
STARTCHAR plusminus
ENCODING 177
SWIDTH 418 0
DWIDTH 8 0
BBX 7 8 0 0
BITMAP
00278000
00278000
19478650
19478650
00278000
00123000
29999970
29999970
ENDCHAR
STARTCHAR uni00B2
ENCODING 178
SWIDTH 233 0
DWIDTH 4 0
BBX 4 3 0 4
BITMAP
0AB2
0582
1BB2
ENDCHAR
STARTCHAR uni00B3
ENCODING 179
SWIDTH 228 0
DWIDTH 4 0
BBX 3 3 1 4
BITMAP
7D10
0820
8A10
ENDCHAR
STARTCHAR acute
ENCODING 180
SWIDTH 195 0
DWIDTH 4 0
BBX 2 2 1 9
BITMAP
45
90
ENDCHAR
STARTCHAR uni00B5
ENCODING 181
SWIDTH 506 0
DWIDTH 9 0
BBX 9 10 0 -2
BITMAP
1780178000
1780178000
1780178000
1780178000
1780178000
1780368000
1788865900
1789967850
1780000000
1680000000
ENDCHAR
STARTCHAR paragraph
ENCODING 182
SWIDTH 435 0
DWIDTH 8 0
BBX 7 8 0 0
BITMAP
08999980
65999980
85411220
47956780
06956780
00046780
00046780
00046780
ENDCHAR
STARTCHAR periodcentered
ENCODING 183
SWIDTH 176 0
DWIDTH 3 0
BBX 3 2 0 3
BITMAP
2340
4570
ENDCHAR
STARTCHAR cedilla
ENCODING 184
SWIDTH 261 0
DWIDTH 5 0
BBX 3 4 1 -4
BITMAP
1400
9A50
1090
8940
ENDCHAR
STARTCHAR uni00B9
ENCODING 185
SWIDTH 218 0
DWIDTH 4 0
BBX 3 3 0 4
BITMAP
18B0
00B0
00B0
ENDCHAR
STARTCHAR ordmasculine
ENCODING 186
SWIDTH 335 0
DWIDTH 6 0
BBX 5 4 1 4
BITMAP
066000
9BB900
766710
677700
ENDCHAR
STARTCHAR guillemotright
ENCODING 187
SWIDTH 298 0
DWIDTH 5 0
BBX 5 4 0 2
BITMAP
230500
173640
244540
191920
ENDCHAR
STARTCHAR onequarter
ENCODING 188
SWIDTH 429 0
DWIDTH 8 0
BBX 8 8 0 0
BITMAP
37600760
37604810
05607600
05648100
00076760
00482910
00763583
04812583
ENDCHAR
STARTCHAR onehalf
ENCODING 189
SWIDTH 437 0
DWIDTH 8 0
BBX 8 8 0 0
BITMAP
59601840
05606700
05618300
04466560
00183874
00660481
02821661
04401661
ENDCHAR
STARTCHAR threequarters
ENCODING 190
SWIDTH 409 0
DWIDTH 7 0
BBX 7 8 0 0
BITMAP
25401620
02606700
36818300
18467000
00293920
00666700
02925680
06604680
ENDCHAR
STARTCHAR questiondown
ENCODING 191
SWIDTH 346 0
DWIDTH 6 0
BBX 6 8 0 -1
BITMAP
008800
002200
008800
037900
094700
179100
099A73
039950
ENDCHAR
STARTCHAR Agrave
ENCODING 192
SWIDTH 798 0
DWIDTH 14 0
BBX 14 21 0 0
BITMAP
00009550000000
00002790000000
00000847000000
00000188100000
00000000000000
00000855800000
00000896640000
00003688180000
00008558780000
00008864863000
00036986558000
00085583689000
00098630986300
00369800855800
00755800368900
00985599498630
03698599885580
07568000045890
09854899939863
26980000008557
75680000004589
ENDCHAR
STARTCHAR Aacute
ENCODING 193
SWIDTH 798 0
DWIDTH 14 0
BBX 14 21 0 0
BITMAP
00000000955000
00000004690000
00000009640000
00000055900000
00000000000000
00000855800000
00000896640000
00003688180000
00008558780000
00008864863000
00036986558000
00085583689000
00098630986300
00369800855800
00755800368900
00985599498630
03698599885580
07568000045890
09854899939863
26980000008557
75680000004589
ENDCHAR
STARTCHAR Acircumflex
ENCODING 194
SWIDTH 798 0
DWIDTH 14 0
BBX 14 21 0 0
BITMAP
00000749100000
00003792820000
00009556590000
00074900956000
00000000000000
00000855800000
00000896640000
00003688180000
00008558780000
00008864863000
00036986558000
00085583689000
00098630986300
00369800855800
00755800368900
00985599498630
03698599885580
07568000045890
09854899939863
26980000008557
75680000004589
ENDCHAR
STARTCHAR Atilde
ENCODING 195
SWIDTH 798 0
DWIDTH 14 0
BBX 14 20 0 0
BITMAP
00005970005000
00019048046000
00024004980000
00000000000000
00000855800000
00000896640000
00003688180000
00008558780000
00008864863000
00036986558000
00085583689000
00098630986300
00369800855800
00755800368900
00985599498630
03698599885580
07568000045890
09854899939863
26980000008557
75680000004589
ENDCHAR
STARTCHAR Adieresis
ENCODING 196
SWIDTH 798 0
DWIDTH 14 0
BBX 14 21 0 0
BITMAP
00049810597000
00090260805400
00090260805400
00049810597000
00000000000000
00000855800000
00000896640000
00003688180000
00008558780000
00008864863000
00036986558000
00085583689000
00098630986300
00369800855800
00755800368900
00985599498630
03698599885580
07568000045890
09854899939863
26980000008557
75680000004589
ENDCHAR
STARTCHAR Aring
ENCODING 197
SWIDTH 798 0
DWIDTH 14 0
BBX 14 21 0 0
BITMAP
0000019A400000
00000810900000
00000810900000
00000199400000
00000000000000
00000855800000
00000896640000
00003688180000
00008558780000
00008864863000
00036986558000
00085583689000
00098630986300
00369800855800
00755800368900
00985599498630
03698599885580
07568000045890
09854899939863
26980000008557
75680000004589
ENDCHAR
STARTCHAR AE
ENCODING 198
SWIDTH 1078 0
DWIDTH 19 0
BBX 19 16 0 0
BITMAP
00000003588699999970
00000014788499999970
00000063888000000000
00000090887499999970
00000544886200000000
00000946875400000000
00004596865689999700
00009387755700000000
00036981556879999700
00093780457869999700
00279720268800000000
00837959388800000000
01886599488800000000
07489000088749999970
19855699588559999970
64890000086559999970
ENDCHAR
STARTCHAR Ccedilla
ENCODING 199
SWIDTH 776 0
DWIDTH 14 0
BBX 14 21 0 -5
BITMAP
00002888888300
00067588885681
00759788886A41
03696810018520
09658000000100
17981000000000
55780000000000
65570000000000
65570000000000
55780000000000
17981000000000
09658000000100
03696810018610
00759788886941
00067488885581
00002888888300
00000034000000
000000C9600000
00000230720000
00000300720000
00000499500000
ENDCHAR
STARTCHAR Egrave
ENCODING 200
SWIDTH 677 0
DWIDTH 12 0
BBX 12 21 0 0
BITMAP
000009730000
000004690000
000000964000
000000369000
000000000000
178859999996
178859999996
178800000000
178859999996
178800000000
178800000000
178859999950
178800000000
178859999950
178859999950
178800000000
178800000000
178800000000
178859999996
178859999996
178859999996
ENDCHAR
STARTCHAR Eacute
ENCODING 201
SWIDTH 677 0
DWIDTH 12 0
BBX 12 21 0 0
BITMAP
000000469000
000000963000
000005590000
000009720000
000000000000
178859999996
178859999996
178800000000
178859999996
178800000000
178800000000
178859999950
178800000000
178859999950
178859999950
178800000000
178800000000
178800000000
178859999996
178859999996
178859999996
ENDCHAR
STARTCHAR Ecircumflex
ENCODING 202
SWIDTH 677 0
DWIDTH 12 0
BBX 12 21 0 0
BITMAP
000009471000
000055A19000
000198384700
000947019730
000000000000
178859999996
178859999996
178800000000
178859999996
178800000000
178800000000
178859999950
178800000000
178859999950
178859999950
178800000000
178800000000
178800000000
178859999996
178859999996
178859999996
ENDCHAR
STARTCHAR Edieresis
ENCODING 203
SWIDTH 677 0
DWIDTH 12 0
BBX 12 21 0 0
BITMAP
000697007960
001806336071
001806336071
000697007960
000000000000
178859999996
178859999996
178800000000
178859999996
178800000000
178800000000
178859999950
178800000000
178859999950
178859999950
178800000000
178800000000
178800000000
178859999996
178859999996
178859999996
ENDCHAR
STARTCHAR Igrave
ENCODING 204
SWIDTH 262 0
DWIDTH 5 0
BBX 5 21 -1 0
BITMAP
955000
279000
084600
018910
000000
017880
017880
017880
017880
017880
017880
017880
017880
017880
017880
017880
017880
017880
017880
017880
017880
ENDCHAR
STARTCHAR Iacute
ENCODING 205
SWIDTH 262 0
DWIDTH 5 0
BBX 6 21 0 0
BITMAP
000954
004690
009630
055900
000000
178800
178800
178800
178800
178800
178800
178800
178800
178800
178800
178800
178800
178800
178800
178800
178800
ENDCHAR
STARTCHAR Icircumflex
ENCODING 206
SWIDTH 262 0
DWIDTH 5 0
BBX 8 21 -2 0
BITMAP
0056A200
01974730
09474691
55A00848
00000000
00178800
00178800
00178800
00178800
00178800
00178800
00178800
00178800
00178800
00178800
00178800
00178800
00178800
00178800
00178800
00178800
ENDCHAR
STARTCHAR Idieresis
ENCODING 207
SWIDTH 262 0
DWIDTH 5 0
BBX 9 21 -2 0
BITMAP
2991039810
8018090270
8018090270
2991039810
0000000000
0017880000
0017880000
0017880000
0017880000
0017880000
0017880000
0017880000
0017880000
0017880000
0017880000
0017880000
0017880000
0017880000
0017880000
0017880000
0017880000
ENDCHAR
STARTCHAR Eth
ENCODING 208
SWIDTH 856 0
DWIDTH 15 0
BBX 15 16 0 0
BITMAP
0358869999500000
0358869996591000
035880000395A100
0358869995085900
035880000491A720
0234400000285570
7999999300072890
0000000000035880
7999999300027980
7999999300036890
0234400000077580
035880000029A730
0358800004995900
0358869998A5A100
0358869996591000
0358869999500000
ENDCHAR
STARTCHAR Ntilde
ENCODING 209
SWIDTH 796 0
DWIDTH 14 0
BBX 14 20 0 0
BITMAP
00005970005000
00019048045000
00023004980000
00000000000000
17880000007556
17885000007556
17883600007556
17883820007556
17886590007556
17881955007556
17886479107556
17881974807556
17880559737556
17880095697556
17880028837556
17880006597556
17880000947556
17880000377556
17880000067556
17880000007556
ENDCHAR
STARTCHAR Ograve
ENCODING 210
SWIDTH 894 0
DWIDTH 16 0
BBX 16 21 0 0
BITMAP
0000096300000000
0000046900000000
0000009550000000
0000003790000000
0000000000000000
0000288888820000
0006758888577000
0075978888795800
0369681001879650
0965800000075790
1798100000009962
5578000000008656
6557000000006558
6557000000006558
5578000000008656
1798100000008963
0965800000075790
0369681001769650
0075978888794800
0006748888577000
0000288888820000
ENDCHAR
STARTCHAR Oacute
ENCODING 211
SWIDTH 894 0
DWIDTH 16 0
BBX 16 21 0 0
BITMAP
0000000046900000
0000000096300000
0000000559000000
0000000972000000
0000000000000000
0000288888820000
0006758888577000
0075978888795800
0369681001879650
0965800000075790
1798100000009962
5578000000008656
6557000000006558
6557000000006558
5578000000008656
1798100000008963
0965800000075790
0369681001769650
0075978888794800
0006748888577000
0000288888820000
ENDCHAR
STARTCHAR Ocircumflex
ENCODING 212
SWIDTH 894 0
DWIDTH 16 0
BBX 16 21 0 0
BITMAP
0000008481000000
0000056A19100000
0000197384800000
0000947019640000
0000000000000000
0000288888820000
0006758888577000
0075978888795800
0369681001879650
0965800000075790
1798100000009962
5578000000008656
6557000000006558
6557000000006558
5578000000008656
1798100000008963
0965800000075790
0369681001769650
0075978888794800
0006748888577000
0000288888820000
ENDCHAR
STARTCHAR Otilde
ENCODING 213
SWIDTH 894 0
DWIDTH 16 0
BBX 16 20 0 0
BITMAP
0000069600140000
0000270560630000
0000320059700000
0000000000000000
0000288888820000
0006758888577000
0075978888795800
0369681001879650
0965800000075790
1798100000009962
5578000000008656
6557000000006558
6557000000006558
5578000000008656
1798100000008963
0965800000075790
0369681001769650
0075978888794800
0006748888577000
0000288888820000
ENDCHAR
STARTCHAR Odieresis
ENCODING 214
SWIDTH 894 0
DWIDTH 16 0
BBX 16 21 0 0
BITMAP
0000597006960000
0001805426072000
0001805426072000
0000597006960000
0000000000000000
0000288888820000
0006758888577000
0075978888795800
0369681001879650
0965800000075790
1798100000009962
5578000000008656
6557000000006558
6557000000006558
5578000000008656
1798100000008963
0965800000075790
0369681001769650
0075978888794800
0006748888577000
0000288888820000
ENDCHAR
STARTCHAR multiply
ENCODING 215
SWIDTH 370 0
DWIDTH 7 0
BBX 6 5 0 1
BITMAP
047180
192957
019580
095837
027191
ENDCHAR
STARTCHAR Oslash
ENCODING 216
SWIDTH 894 0
DWIDTH 16 0
BBX 16 16 0 0
BITMAP
0000288889826100
0006858888295640
0065978885749720
0379681003794750
08668000196493A0
1798100084874854
4578000569387557
6557037973906558
6558099565406557
5568795900008656
2683A89100008962
0A39A65000075790
056B480001779640
02C7913888795700
0335318988577000
0000078888820000
ENDCHAR
STARTCHAR Ugrave
ENCODING 217
SWIDTH 702 0
DWIDTH 13 0
BBX 12 21 0 0
BITMAP
000964000000
000369000000
000095500000
000027900000
000000000000
178800003588
178800003588
178800003588
178800003588
178800003588
178800003588
178800003588
178800003588
178800003588
178800003588
178800003588
088810006668
086680029854
037979888590
006768884920
000398888100
ENDCHAR
STARTCHAR Uacute
ENCODING 218
SWIDTH 702 0
DWIDTH 13 0
BBX 12 21 0 0
BITMAP
000000095400
000000469000
000000963000
000005590000
000000000000
178800003588
178800003588
178800003588
178800003588
178800003588
178800003588
178800003588
178800003588
178800003588
178800003588
178800003588
088810006668
086680029854
037979888590
006768884920
000398888100
ENDCHAR
STARTCHAR Ucircumflex
ENCODING 219
SWIDTH 702 0
DWIDTH 13 0
BBX 12 21 0 0
BITMAP
000055A20000
000198373000
000947469000
0065A0084800
000000000000
178800003588
178800003588
178800003588
178800003588
178800003588
178800003588
178800003588
178800003588
178800003588
178800003588
178800003588
088810006668
086680029854
037979888590
006768884920
000398888100
ENDCHAR
STARTCHAR Udieresis
ENCODING 220
SWIDTH 702 0
DWIDTH 13 0
BBX 12 21 0 0
BITMAP
003991049800
009018090360
009018090360
003991049800
000000000000
178800003588
178800003588
178800003588
178800003588
178800003588
178800003588
178800003588
178800003588
178800003588
178800003588
178800003588
088810006668
086680029854
037979888590
006768884920
000398888100
ENDCHAR
STARTCHAR Yacute
ENCODING 221
SWIDTH 769 0
DWIDTH 14 0
BBX 14 21 0 0
BITMAP
00000004690000
00000009630000
00000055900000
00000097200000
00000000000000
74891000027955
19748000095690
05597300559730
00955901974800
00279557489100
00084792946000
00019748390000
00006598430000
00000431400000
00000644500000
00000855600000
00000855600000
00000855600000
00000855600000
00000855600000
00000855600000
ENDCHAR
STARTCHAR Thorn
ENCODING 222
SWIDTH 743 0
DWIDTH 13 0
BBX 13 16 0 0
BITMAP
17880000000000
17880000000000
17880000000000
17885999995000
17885999998800
17880000009750
17885999981880
17880000027880
17880000027880
17885999999280
17885999993550
17880000005800
17885999995000
17880000000000
17880000000000
17880000000000
ENDCHAR
STARTCHAR germandbls
ENCODING 223
SWIDTH 424 0
DWIDTH 8 0
BBX 8 8 0 0
BITMAP
06999910
27999570
45701780
45739A80
45739790
45700981
45769690
45769940
ENDCHAR
STARTCHAR agrave
ENCODING 224
SWIDTH 414 0
DWIDTH 7 0
BBX 8 11 0 0
BITMAP
00450000
00090000
00000000
0055C000
00979200
018B5700
05598900
08639720
18A9B570
55B99790
86200872
ENDCHAR
STARTCHAR aacute
ENCODING 225
SWIDTH 414 0
DWIDTH 7 0
BBX 8 11 0 0
BITMAP
00007200
00018000
00000000
0055C000
00979200
018B5700
05598900
08639720
18A9B570
55B99790
86200872
ENDCHAR
STARTCHAR acircumflex
ENCODING 226
SWIDTH 414 0
DWIDTH 7 0
BBX 8 11 0 0
BITMAP
00292000
00918200
00000000
0055C000
00979200
018B5700
05598900
08639720
18A9B570
55B99790
86200872
ENDCHAR
STARTCHAR atilde
ENCODING 227
SWIDTH 414 0
DWIDTH 7 0
BBX 8 11 0 0
BITMAP
00970600
02429500
00000000
0055C000
00979200
018B5700
05598900
08639720
18A9B570
55B99790
86200872
ENDCHAR
STARTCHAR adieresis
ENCODING 228
SWIDTH 414 0
DWIDTH 7 0
BBX 8 11 0 0
BITMAP
00B39500
00101000
00000000
0055C000
00979200
018B5700
05598900
08639720
18A9B570
55B99790
86200872
ENDCHAR
STARTCHAR aring
ENCODING 229
SWIDTH 414 0
DWIDTH 7 0
BBX 8 12 0 0
BITMAP
00085000
00357000
00085000
00000000
0055C000
00979200
018B5700
05598900
08639720
18A9B570
55B99790
86200872
ENDCHAR
STARTCHAR ae
ENCODING 230
SWIDTH 593 0
DWIDTH 11 0
BBX 11 8 0 0
BITMAP
00036C999930
000859A99930
0027C5400000
0085C5B99700
027A55C99700
085636800000
27A998B99930
856008A99930
ENDCHAR
STARTCHAR ccedilla
ENCODING 231
SWIDTH 446 0
DWIDTH 8 0
BBX 8 12 0 -4
BITMAP
00798860
08489853
26910230
65500000
65500000
26910230
08488753
00788860
00023000
000A9400
00010800
00189300
ENDCHAR
STARTCHAR egrave
ENCODING 232
SWIDTH 363 0
DWIDTH 7 0
BBX 7 11 0 0
BITMAP
00640000
00090000
00000000
45C99920
45C99920
45700000
45C99600
45C99600
45700000
45C99920
45C99920
ENDCHAR
STARTCHAR eacute
ENCODING 233
SWIDTH 363 0
DWIDTH 7 0
BBX 7 11 0 0
BITMAP
00008100
00027000
00000000
45C99920
45C99920
45700000
45C99600
45C99600
45700000
45C99920
45C99920
ENDCHAR
STARTCHAR ecircumflex
ENCODING 234
SWIDTH 363 0
DWIDTH 7 0
BBX 7 11 0 0
BITMAP
00282000
00919200
00000000
45C99920
45C99920
45700000
45C99600
45C99600
45700000
45C99920
45C99920
ENDCHAR
STARTCHAR edieresis
ENCODING 235
SWIDTH 363 0
DWIDTH 7 0
BBX 7 11 0 0
BITMAP
00B29400
00101000
00000000
45C99920
45C99920
45700000
45C99600
45C99600
45700000
45C99920
45C99920
ENDCHAR
STARTCHAR igrave
ENCODING 236
SWIDTH 176 0
DWIDTH 3 0
BBX 3 11 0 0
BITMAP
7200
1800
0000
4570
4570
4570
4570
4570
4570
4570
4570
ENDCHAR
STARTCHAR iacute
ENCODING 237
SWIDTH 176 0
DWIDTH 3 0
BBX 3 11 0 0
BITMAP
0090
0450
0000
4570
4570
4570
4570
4570
4570
4570
4570
ENDCHAR
STARTCHAR icircumflex
ENCODING 238
SWIDTH 176 0
DWIDTH 3 0
BBX 5 11 -1 0
BITMAP
046200
190910
000000
045700
045700
045700
045700
045700
045700
045700
045700
ENDCHAR
STARTCHAR idieresis
ENCODING 239
SWIDTH 176 0
DWIDTH 3 0
BBX 4 11 0 0
BITMAP
D0C2
1010
0000
4570
4570
4570
4570
4570
4570
4570
4570
ENDCHAR
STARTCHAR eth
ENCODING 240
SWIDTH 455 0
DWIDTH 8 0
BBX 8 8 0 0
BITMAP
35C99810
35C99490
24700956
00000268
89940268
35800956
35C99490
35C99810
ENDCHAR
STARTCHAR ntilde
ENCODING 241
SWIDTH 444 0
DWIDTH 8 0
BBX 8 11 0 0
BITMAP
00781600
00618700
00000000
45C00754
45B60754
45992754
45C59754
45795C54
45728A54
45706A54
45700C54
ENDCHAR
STARTCHAR ograve
ENCODING 242
SWIDTH 494 0
DWIDTH 9 0
BBX 9 11 0 0
BITMAP
0009100000
0002700000
0000000000
0079896000
0848885700
2691029810
6550007540
6550007540
2691028810
0848885700
0078886000
ENDCHAR
STARTCHAR oacute
ENCODING 243
SWIDTH 494 0
DWIDTH 9 0
BBX 9 11 0 0
BITMAP
0000180000
0000810000
0000000000
0079896000
0848885700
2691029810
6550007540
6550007540
2691028810
0848885700
0078886000
ENDCHAR
STARTCHAR ocircumflex
ENCODING 244
SWIDTH 494 0
DWIDTH 9 0
BBX 9 11 0 0
BITMAP
0006510000
0028190000
0000000000
0079896000
0848885700
2691029810
6550007540
6550007540
2691028810
0848885700
0078886000
ENDCHAR
STARTCHAR otilde
ENCODING 245
SWIDTH 494 0
DWIDTH 9 0
BBX 9 11 0 0
BITMAP
0039425000
0060691000
0000000000
0079896000
0848885700
2691029810
6550007540
6550007540
2691028810
0848885700
0078886000
ENDCHAR
STARTCHAR odieresis
ENCODING 246
SWIDTH 494 0
DWIDTH 9 0
BBX 9 11 0 0
BITMAP
002C0D0000
0001010000
0000000000
0079896000
0848885700
2691029810
6550007540
6550007540
2691028810
0848885700
0078886000
ENDCHAR
STARTCHAR divide
ENCODING 247
SWIDTH 418 0
DWIDTH 8 0
BBX 7 7 0 0
BITMAP
00074000
00074000
29999970
00000000
29999970
00074000
00096000
ENDCHAR
STARTCHAR oslash
ENCODING 248
SWIDTH 494 0
DWIDTH 9 0
BBX 9 8 0 0
BITMAP
0079882700
0848829200
2691093810
6550737540
6555507540
2647029810
0393885700
0728886000
ENDCHAR
STARTCHAR ugrave
ENCODING 249
SWIDTH 400 0
DWIDTH 7 0
BBX 7 11 0 0
BITMAP
00720000
00190000
00000000
45704570
45704570
45704570
45704570
45704570
36806560
09586820
02989400
ENDCHAR
STARTCHAR uacute
ENCODING 250
SWIDTH 400 0
DWIDTH 7 0
BBX 7 11 0 0
BITMAP
00009000
00063000
00000000
45704570
45704570
45704570
45704570
45704570
36806560
09586820
02989400
ENDCHAR
STARTCHAR ucircumflex
ENCODING 251
SWIDTH 400 0
DWIDTH 7 0
BBX 7 11 0 0
BITMAP
00472000
01909100
00000000
45704570
45704570
45704570
45704570
45704570
36806560
09586820
02989400
ENDCHAR
STARTCHAR udieresis
ENCODING 252
SWIDTH 400 0
DWIDTH 7 0
BBX 7 11 0 0
BITMAP
00D0B200
00101000
00000000
45704570
45704570
45704570
45704570
45704570
36806560
09586820
02989400
ENDCHAR
STARTCHAR yacute
ENCODING 253
SWIDTH 422 0
DWIDTH 8 0
BBX 8 11 0 0
BITMAP
00009100
00036000
00000000
74801982
19738470
046A7900
0095B400
00135000
00178000
00178000
00178000
ENDCHAR
STARTCHAR thorn
ENCODING 254
SWIDTH 412 0
DWIDTH 7 0
BBX 7 8 0 0
BITMAP
45700000
45C99800
45700270
45C99580
45C99580
45700270
45C99800
45700000
ENDCHAR
STARTCHAR ydieresis
ENCODING 255
SWIDTH 422 0
DWIDTH 8 0
BBX 8 11 0 0
BITMAP
00B39500
00101000
00000000
74801982
19738470
046A7900
0095B400
00135000
00178000
00178000
00178000
ENDCHAR
STARTCHAR Edotaccent
ENCODING 278
SWIDTH 677 0
DWIDTH 12 0
BBX 12 18 0 0
BITMAP
000000770000
000000990000
178859999996
178859999996
178800000000
178859999996
178800000000
178800000000
178859999950
178800000000
178859999950
178859999950
178800000000
178800000000
178800000000
178859999996
178859999996
178859999996
ENDCHAR
STARTCHAR edotaccent
ENCODING 279
SWIDTH 363 0
DWIDTH 7 0
BBX 7 11 0 0
BITMAP
000A4000
000D5000
00000000
45C99920
45C99920
45700000
45C99600
45C99600
45700000
45C99920
45C99920
ENDCHAR
STARTCHAR dotlessi
ENCODING 305
SWIDTH 176 0
DWIDTH 3 0
BBX 3 8 0 0
BITMAP
4570
4570
4570
4570
4570
4570
4570
4570
ENDCHAR
STARTCHAR OE
ENCODING 338
SWIDTH 1221 0
DWIDTH 22 0
BBX 22 16 0 0
BITMAP
0000289999000069999994
0007848999000069999994
0075961000000000000000
0479228999000069999994
0963681000000000000000
1794700000000000000000
5579000000000069999940
6558000000000000000000
6568000000000069999940
5579000000000069999940
2799000000000000000000
0967700000000000000000
0479881000000000000000
0075989999000069999994
0007858999000069999994
0000289999000069999994
ENDCHAR
STARTCHAR oe
ENCODING 339
SWIDTH 637 0
DWIDTH 11 0
BBX 12 8 0 0
BITMAP
007996069991
084896069991
369100000000
655000069950
655000069950
369100000000
084896069991
007996069991
ENDCHAR
STARTCHAR Wcircumflex
ENCODING 372
SWIDTH 972 0
DWIDTH 18 0
BBX 18 21 0 0
BITMAP
000000197510000000
000000848380000000
0000046A1964000000
000019730379100000
000000000000000000
855700075580008881
557800088540045880
178800088810075570
088620458820087540
086560755780188800
065680885472458800
026880888355755700
008872589368575400
008754457189088000
007558754788178000
004588280975427000
001888090855744000
000886350457940000
000865600188800000
000557800098630000
000278800086560000
ENDCHAR
STARTCHAR wcircumflex
ENCODING 373
SWIDTH 521 0
DWIDTH 9 0
BBX 10 11 0 0
BITMAP
0003820000
0009091000
0000000000
8712690871
75555B0890
35886B3680
088996A560
0887C5D720
0756979900
045C488900
018C086600
ENDCHAR
STARTCHAR Ycircumflex
ENCODING 374
SWIDTH 769 0
DWIDTH 14 0
BBX 14 21 0 0
BITMAP
00000957100000
00006591900000
00028829470000
00095601983000
00000000000000
74891000027955
19748000095690
05597300559730
00955901974800
00279557489100
00084792946000
00019748390000
00006598430000
00000431400000
00000644500000
00000855600000
00000855600000
00000855600000
00000855600000
00000855600000
00000855600000
ENDCHAR
STARTCHAR ycircumflex
ENCODING 375
SWIDTH 422 0
DWIDTH 8 0
BBX 8 11 0 0
BITMAP
00292000
00918200
00000000
74801982
19738470
046A7900
0095B400
00135000
00178000
00178000
00178000
ENDCHAR
STARTCHAR Ydieresis
ENCODING 376
SWIDTH 769 0
DWIDTH 14 0
BBX 14 21 0 0
BITMAP
00069600795000
00270624508100
00270624508100
00069600795000
00000000000000
74891000027955
19748000095690
05597300559730
00955901974800
00279557489100
00084792946000
00019748390000
00006598430000
00000431400000
00000644500000
00000855600000
00000855600000
00000855600000
00000855600000
00000855600000
00000855600000
ENDCHAR
STARTCHAR circumflex
ENCODING 710
SWIDTH 298 0
DWIDTH 5 0
BBX 4 2 1 9
BITMAP
1920
9182
ENDCHAR
STARTCHAR dotaccent
ENCODING 729
SWIDTH 212 0
DWIDTH 4 0
BBX 2 2 1 9
BITMAP
86
B8
ENDCHAR
STARTCHAR ring
ENCODING 730
SWIDTH 212 0
DWIDTH 4 0
BBX 3 3 0 9
BITMAP
0760
1670
0760
ENDCHAR
STARTCHAR tilde
ENCODING 732
SWIDTH 329 0
DWIDTH 6 0
BBX 4 2 1 9
BITMAP
8816
5197
ENDCHAR
STARTCHAR gravecomb
ENCODING 768
SWIDTH 0 0
DWIDTH 0 0
BBX 2 2 1 9
BITMAP
90
45
ENDCHAR
STARTCHAR acutecomb
ENCODING 769
SWIDTH 0 0
DWIDTH 0 0
BBX 2 2 1 9
BITMAP
45
90
ENDCHAR
STARTCHAR uni0302
ENCODING 770
SWIDTH 0 0
DWIDTH 0 0
BBX 4 2 1 9
BITMAP
1920
9182
ENDCHAR
STARTCHAR tildecomb
ENCODING 771
SWIDTH 0 0
DWIDTH 0 0
BBX 4 2 1 9
BITMAP
8816
5197
ENDCHAR
STARTCHAR uni0307
ENCODING 775
SWIDTH 0 0
DWIDTH 0 0
BBX 2 2 1 9
BITMAP
86
B8
ENDCHAR
STARTCHAR uni0308
ENCODING 776
SWIDTH 0 0
DWIDTH 0 0
BBX 4 2 1 9
BITMAP
D0B2
1010
ENDCHAR
STARTCHAR uni030A
ENCODING 778
SWIDTH 0 0
DWIDTH 0 0
BBX 3 3 0 9
BITMAP
0760
1670
0760
ENDCHAR
STARTCHAR uni0327
ENCODING 807
SWIDTH 0 0
DWIDTH 0 0
BBX 3 4 1 -4
BITMAP
1400
9A50
1090
8940
ENDCHAR
STARTCHAR Wgrave
ENCODING 7808
SWIDTH 972 0
DWIDTH 18 0
BBX 18 21 0 0
BITMAP
000000289100000000
000000084700000000
000000018810000000
000000007480000000
000000000000000000
855700075580008881
557800088540045880
178800088810075570
088620458820087540
086560755780188800
065680885472458800
026880888355755700
008872589368575400
008754457189088000
007558754788178000
004588280975427000
001888090855744000
000886350457940000
000865600188800000
000557800098630000
000278800086560000
ENDCHAR
STARTCHAR wgrave
ENCODING 7809
SWIDTH 521 0
DWIDTH 9 0
BBX 10 11 0 0
BITMAP
0000900000
0000540000
0000000000
8712690871
75555B0890
35886B3680
088996A560
0887C5D720
0756979900
045C488900
018C086600
ENDCHAR
STARTCHAR Wacute
ENCODING 7810
SWIDTH 972 0
DWIDTH 18 0
BBX 18 21 0 0
BITMAP
000000008470000000
000000028910000000
000000085600000000
000000379000000000
000000000000000000
855700075580008881
557800088540045880
178800088810075570
088620458820087540
086560755780188800
065680885472458800
026880888355755700
008872589368575400
008754457189088000
007558754788178000
004588280975427000
001888090855744000
000886350457940000
000865600188800000
000557800098630000
000278800086560000
ENDCHAR
STARTCHAR wacute
ENCODING 7811
SWIDTH 521 0
DWIDTH 9 0
BBX 10 11 0 0
BITMAP
0000540000
0000900000
0000000000
8712690871
75555B0890
35886B3680
088996A560
0887C5D720
0756979900
045C488900
018C086600
ENDCHAR
STARTCHAR Wdieresis
ENCODING 7812
SWIDTH 972 0
DWIDTH 18 0
BBX 18 21 0 0
BITMAP
000008950189300000
000054090720900000
000054090720900000
000008950189300000
000000000000000000
855700075580008881
557800088540045880
178800088810075570
088620458820087540
086560755780188800
065680885472458800
026880888355755700
008872589368575400
008754457189088000
007558754788178000
004588280975427000
001888090855744000
000886350457940000
000865600188800000
000557800098630000
000278800086560000
ENDCHAR
STARTCHAR wdieresis
ENCODING 7813
SWIDTH 521 0
DWIDTH 9 0
BBX 10 11 0 0
BITMAP
000C2A4000
0001010000
0000000000
8712690871
75555B0890
35886B3680
088996A560
0887C5D720
0756979900
045C488900
018C086600
ENDCHAR
STARTCHAR uni1E9E
ENCODING 7838
SWIDTH 784 0
DWIDTH 14 0
BBX 14 16 0 0
BITMAP
17885999999800
17885999999800
17880000000000
17885999999800
17880000974700
17880006589100
17880019857100
17880074891920
17880198566590
17880324437963
17880000008556
17880000007656
17880000009754
17880499997890
17880499997650
17880499999400
ENDCHAR
STARTCHAR Ygrave
ENCODING 7922
SWIDTH 769 0
DWIDTH 14 0
BBX 14 21 0 0
BITMAP
00000982000000
00000559000000
00000096300000
00000046900000
00000000000000
74891000027955
19748000095690
05597300559730
00955901974800
00279557489100
00084792946000
00019748390000
00006598430000
00000431400000
00000644500000
00000855600000
00000855600000
00000855600000
00000855600000
00000855600000
00000855600000
ENDCHAR
STARTCHAR ygrave
ENCODING 7923
SWIDTH 422 0
DWIDTH 8 0
BBX 8 11 0 0
BITMAP
00090000
00046000
00000000
74801982
19738470
046A7900
0095B400
00135000
00178000
00178000
00178000
ENDCHAR
STARTCHAR endash
ENCODING 8211
SWIDTH 507 0
DWIDTH 9 0
BBX 9 2 0 3
BITMAP
1999999920
1999999920
ENDCHAR
STARTCHAR emdash
ENCODING 8212
SWIDTH 552 0
DWIDTH 10 0
BBX 9 2 0 3
BITMAP
1999999990
1999999990
ENDCHAR
STARTCHAR quoteleft
ENCODING 8216
SWIDTH 146 0
DWIDTH 3 0
BBX 3 3 0 5
BITMAP
8000
8420
4310
ENDCHAR
STARTCHAR quoteright
ENCODING 8217
SWIDTH 146 0
DWIDTH 3 0
BBX 3 3 0 5
BITMAP
8530
3530
0310
ENDCHAR
STARTCHAR quotesinglbase
ENCODING 8218
SWIDTH 146 0
DWIDTH 3 0
BBX 3 3 0 -3
BITMAP
1000
8530
2530
ENDCHAR
STARTCHAR quotedblleft
ENCODING 8220
SWIDTH 297 0
DWIDTH 5 0
BBX 5 3 0 5
BITMAP
800800
842870
431440
ENDCHAR
STARTCHAR quotedblright
ENCODING 8221
SWIDTH 297 0
DWIDTH 5 0
BBX 5 3 0 5
BITMAP
853880
353380
031040
ENDCHAR
STARTCHAR quotedblbase
ENCODING 8222
SWIDTH 297 0
DWIDTH 5 0
BBX 5 3 0 -3
BITMAP
100110
853880
253280
ENDCHAR
STARTCHAR bullet
ENCODING 8226
SWIDTH 302 0
DWIDTH 5 0
BBX 4 4 1 2
BITMAP
4980
9036
9036
4980
ENDCHAR
STARTCHAR ellipsis
ENCODING 8230
SWIDTH 528 0
DWIDTH 10 0
BBX 9 2 0 0
BITMAP
2341450550
4572680880
ENDCHAR
STARTCHAR guilsinglleft
ENCODING 8249
SWIDTH 178 0
DWIDTH 3 0
BBX 3 4 0 2
BITMAP
0230
1820
2340
0830
ENDCHAR
STARTCHAR guilsinglright
ENCODING 8250
SWIDTH 178 0
DWIDTH 3 0
BBX 3 4 0 2
BITMAP
2300
1730
2440
1910
ENDCHAR
STARTCHAR fraction
ENCODING 8260
SWIDTH 362 0
DWIDTH 7 0
BBX 7 8 0 0
BITMAP
00018810
00074700
00188100
00747000
01881000
07470000
18810000
74700000
ENDCHAR
STARTCHAR uni2074
ENCODING 8308
SWIDTH 204 0
DWIDTH 4 0
BBX 4 3 0 4
BITMAP
0750
5D82
2492
ENDCHAR
STARTCHAR Euro
ENCODING 8364
SWIDTH 462 0
DWIDTH 8 0
BBX 8 8 0 0
BITMAP
00498881
04769846
05340040
78881000
78881000
05240150
04769946
00498881
ENDCHAR
STARTCHAR trademark
ENCODING 8482
SWIDTH 461 0
DWIDTH 8 0
BBX 8 4 0 4
BITMAP
BDD57038
01048788
08044718
08044008
ENDCHAR
STARTCHAR minus
ENCODING 8722
SWIDTH 420 0
DWIDTH 8 0
BBX 7 2 0 3
BITMAP
4DDDDDB0
4DDDDDB0
ENDCHAR
STARTCHAR uni2215
ENCODING 8725
SWIDTH 278 0
DWIDTH 5 0
BBX 5 7 0 0
BITMAP
003680
008550
009800
046800
085400
089000
458000
ENDCHAR
STARTCHAR .notdef
ENCODING -1
SWIDTH 500 0
DWIDTH 9 0
BBX 9 20 0 -4
BITMAP
1EEEEEEE10
1C00000C10
1C00000C10
1C00000C10
1C00000C10
1C00000C10
1C00000C10
1C00000C10
1C00000C10
1C00000C10
1C00000C10
1C00000C10
1C00000C10
1C00000C10
1C00000C10
1C00000C10
1C00000C10
1C00000C10
1C00000C10
1EEEEEEE10
ENDCHAR
STARTCHAR NULL
ENCODING -1
SWIDTH 600 0
DWIDTH 11 0
BBX 1 1 0 0
BITMAP
00
ENDCHAR
STARTCHAR acutecomb.case
ENCODING -1
SWIDTH 0 0
DWIDTH 0 0
BBX 4 4 1 17
BITMAP
0379
0964
4690
9630
ENDCHAR
STARTCHAR ampersand.case
ENCODING -1
SWIDTH 797 0
DWIDTH 14 0
BBX 14 16 0 0
BITMAP
00006888700000
00074888480000
00279787963000
00656807657000
00755808557000
00458936A64000
00098395690000
00475965600000
06739569100300
19863884908440
5489365A654A54
65580095794490
45790029849510
088788566A5500
04759883957910
00388887297490
ENDCHAR
STARTCHAR asciicircum.case
ENCODING -1
SWIDTH 540 0
DWIDTH 10 0
BBX 10 9 0 8
BITMAP
0000100000
0000810000
0002770000
0009555000
0036929100
0096474700
0459018810
0973007480
6590000982
ENDCHAR
STARTCHAR asciitilde.case
ENCODING -1
SWIDTH 640 0
DWIDTH 12 0
BBX 11 5 0 6
BITMAP
069996100140
180003899820
068997311580
199999888750
130002799820
ENDCHAR
STARTCHAR asterisk.case
ENCODING -1
SWIDTH 482 0
DWIDTH 9 0
BBX 7 7 1 9
BITMAP
00853000
31853220
48204720
87001960
04104100
18744900
13609200
ENDCHAR
STARTCHAR at.case
ENCODING -1
SWIDTH 915 0
DWIDTH 16 0
BBX 16 16 0 0
BITMAP
0000168889850000
0003947988659100
0038782000286810
0197500000005680
0758006888460873
0981086888680378
0890559005680099
2790862003680089
2780862003680088
0890558005690548
0981086887658636
0658005887510191
0196500000068820
0038682000330000
0003947888661000
0000168889840000
ENDCHAR
STARTCHAR backslash.case
ENCODING -1
SWIDTH 504 0
DWIDTH 9 0
BBX 9 18 0 -1
BITMAP
9657000000
5579000000
1888100000
0975600000
0656900000
0279800000
0098550000
0075680000
0026880000
0009854000
0008558000
0003688000
0000986300
0000855700
0000458800
0000089720
0000096560
0000055780
ENDCHAR
STARTCHAR bar.case
ENCODING -1
SWIDTH 262 0
DWIDTH 5 0
BBX 4 18 0 -1
BITMAP
1788
1788
1788
1788
1788
1788
1788
1788
1788
1788
1788
1788
1788
1788
1788
1788
1788
1788
ENDCHAR
STARTCHAR braceleft.case
ENCODING -1
SWIDTH 504 0
DWIDTH 9 0
BBX 9 18 0 -1
BITMAP
0007773920
0008883920
0008880000
0008883920
0008880000
0008880000
0008880000
0008880000
1948880000
1948880000
1948880000
0008880000
0008880000
0008880000
0008880000
0008883920
0008883920
0006663920
ENDCHAR
STARTCHAR braceright.case
ENCODING -1
SWIDTH 506 0
DWIDTH 9 0
BBX 9 18 0 -3
BITMAP
1946660000
1948880000
1948880000
0008880000
0008880000
0008880000
0008880000
0008883920
0008883920
0008883920
0008880000
0008880000
0008880000
0008880000
1948880000
0008880000
1948880000
1947760000
ENDCHAR
STARTCHAR bracketleft.case
ENCODING -1
SWIDTH 453 0
DWIDTH 8 0
BBX 8 18 0 -1
BITMAP
15665992
17885992
17880000
17885992
17880000
17880000
17880000
17880000
17880000
17880000
17880000
17880000
17880000
17880000
17880000
17885992
17885992
15665992
ENDCHAR
STARTCHAR bracketright.case
ENCODING -1
SWIDTH 453 0
DWIDTH 8 0
BBX 8 18 0 -3
BITMAP
19966543
19968754
19968754
00008754
00008754
00008754
00008754
00008754
00008754
00008754
00008754
00008754
00008754
00008754
19968754
00008754
19968754
19966643
ENDCHAR
STARTCHAR brokenbar.case
ENCODING -1
SWIDTH 262 0
DWIDTH 5 0
BBX 4 18 0 0
BITMAP
1788
1788
1788
1788
1788
1788
1788
1788
0000
0000
1788
1788
1788
1788
1788
1788
1788
1788
ENDCHAR
STARTCHAR bullet.case
ENCODING -1
SWIDTH 503 0
DWIDTH 9 0
BBX 9 8 0 4
BITMAP
0028993000
0398988400
0973038900
1790009710
1790009710
0973038900
0398988400
0028993000
ENDCHAR
STARTCHAR uni0327.case
ENCODING -1
SWIDTH 0 0
DWIDTH 0 0
BBX 4 5 1 -5
BITMAP
0610
3C93
4109
3009
6993
ENDCHAR
STARTCHAR cent.case
ENCODING -1
SWIDTH 577 0
DWIDTH 10 0
BBX 9 18 1 -1
BITMAP
0000880000
0000880000
0000660000
0018997100
0492003A10
2817998360
82A7996500
8866004000
8890000000
8890000000
8866003000
8297997500
2817998360
0492003A10
0028997100
0000660000
0000880000
0000880000
ENDCHAR
STARTCHAR uni0302.case
ENCODING -1
SWIDTH 0 0
DWIDTH 0 0
BBX 8 4 1 17
BITMAP
00957100
06591900
28828470
95601973
ENDCHAR
STARTCHAR colon.case
ENCODING -1
SWIDTH 262 0
DWIDTH 5 0
BBX 4 11 0 0
BITMAP
0111
1788
1788
1788
0000
0000
0000
0111
1788
1788
1788
ENDCHAR
STARTCHAR comma.case
ENCODING -1
SWIDTH 338 0
DWIDTH 6 0
BBX 5 5 1 -2
BITMAP
088810
358800
755800
875400
888100
ENDCHAR
STARTCHAR copyright.case
ENCODING -1
SWIDTH 895 0
DWIDTH 16 0
BBX 16 16 0 0
BITMAP
0000288888820000
0006848888587000
0076861000595800
0379200000019640
0964005888303790
1790086896710963
5570559003200556
6550863000000358
6550863000000358
5570469003200556
1790086887710963
0964005888303790
0379200000029640
0076861000595800
0006848888577000
0000288888820000
ENDCHAR
STARTCHAR currency.case
ENCODING -1
SWIDTH 676 0
DWIDTH 12 0
BBX 12 12 0 1
BITMAP
002000000100
024800005620
149530017842
096559973691
003679968300
000991097200
001780085400
000981097200
014689978330
296359971783
157810009561
017400002810
ENDCHAR
STARTCHAR degree.case
ENCODING -1
SWIDTH 413 0
DWIDTH 7 0
BBX 7 7 0 9
BITMAP
02999600
19598650
55803790
65500880
46803790
0A798930
01799300
ENDCHAR
STARTCHAR uni0308.case
ENCODING -1
SWIDTH 0 0
DWIDTH 0 0
BBX 9 4 1 17
BITMAP
5980069600
8045270620
8045270620
5980069600
ENDCHAR
STARTCHAR divide.case
ENCODING -1
SWIDTH 618 0
DWIDTH 11 0
BBX 11 10 0 3
BITMAP
000019700000
000054900000
000019700000
000000000000
199999999920
199999999920
199999999920
000019700000
000054900000
000019700000
ENDCHAR
STARTCHAR uni2215.case
ENCODING -1
SWIDTH 483 0
DWIDTH 9 0
BBX 8 16 0 0
BITMAP
00002798
00006569
00008756
00018971
00055790
00086570
00089620
00358900
00855800
00885400
02698000
07569000
08755000
17981000
55790000
86560000
ENDCHAR
STARTCHAR dollar.case
ENCODING -1
SWIDTH 660 0
DWIDTH 12 0
BBX 12 18 0 -1
BITMAP
000008800000
000338832000
019628828700
094938859560
279548864880
556908818520
558943600000
196759830000
049498469300
002984696850
000016985781
000008529854
123808809755
369648855972
094928849490
019628826900
000438843000
000008800000
ENDCHAR
STARTCHAR eight.case
ENCODING -1
SWIDTH 561 0
DWIDTH 10 0
BBX 10 16 0 0
BITMAP
0039889400
0476996750
0987886881
4589009755
6558007557
656A208556
37938A5663
0949836A50
0497379490
2764993A63
5569019556
6557007557
4589009755
0987887890
0576996750
0039889400
ENDCHAR
STARTCHAR ellipsis.case
ENCODING -1
SWIDTH 766 0
DWIDTH 14 0
BBX 13 4 0 0
BITMAP
01110111101110
17880865508880
17880865508880
17880865508880
ENDCHAR
STARTCHAR emdash.case
ENCODING -1
SWIDTH 790 0
DWIDTH 14 0
BBX 14 3 0 6
BITMAP
19999999999993
19999999999993
19999999999993
ENDCHAR
STARTCHAR endash.case
ENCODING -1
SWIDTH 721 0
DWIDTH 13 0
BBX 13 3 0 6
BITMAP
19999999999910
19999999999910
19999999999910
ENDCHAR
STARTCHAR equal.case
ENCODING -1
SWIDTH 618 0
DWIDTH 11 0
BBX 11 9 0 3
BITMAP
199999999920
199999999920
000000000000
199999999920
000000000000
199999999920
000000000000
199999999920
199999999920
ENDCHAR
STARTCHAR Euro.case
ENCODING -1
SWIDTH 767 0
DWIDTH 14 0
BBX 14 16 0 0
BITMAP
00000498888300
00009668886680
00094968886941
0055A760018410
00984700000100
00444100000000
78888888800000
00000000000000
78888888800000
78888888800000
00444100000000
00974700000100
00559770018410
00094968886941
00009568885680
00000498888300
ENDCHAR
STARTCHAR exclam.case
ENCODING -1
SWIDTH 262 0
DWIDTH 5 0
BBX 4 16 0 0
BITMAP
1788
1788
1788
1788
1788
1788
1788
1788
1788
1788
1788
1566
0122
1788
1788
1788
ENDCHAR
STARTCHAR exclamdown.case
ENCODING -1
SWIDTH 262 0
DWIDTH 5 0
BBX 4 16 0 -5
BITMAP
1788
1788
1788
0122
1566
1788
1788
1788
1788
1788
1788
1788
1788
1788
1788
1788
ENDCHAR
STARTCHAR five.case
ENCODING -1
SWIDTH 558 0
DWIDTH 10 0
BBX 10 16 0 0
BITMAP
0888888881
0888888881
0888888881
0000000000
1888000000
1888000000
1888487100
1888002930
18884A9190
1666485A54
0000009647
4335007557
5589009765
1986886890
0576996750
0049889400
ENDCHAR
STARTCHAR four.case
ENCODING -1
SWIDTH 585 0
DWIDTH 11 0
BBX 10 16 0 0
BITMAP
0000658900
0000974600
0004698100
0009658000
0027972000
0085690000
0189630000
0647900000
0985586550
1344086550
4999786559
4999786559
0000086550
4999786559
0000086550
0000086550
ENDCHAR
STARTCHAR uni2074.case
ENCODING -1
SWIDTH 312 0
DWIDTH 6 0
BBX 6 7 0 9
BITMAP
009810
055800
097200
145431
496871
496871
000871
ENDCHAR
STARTCHAR fraction.case
ENCODING -1
SWIDTH 655 0
DWIDTH 12 0
BBX 10 16 1 0
BITMAP
0000000558
0000000972
0000005580
0000009720
0000055800
0000097200
0000558000
0000972000
0005580000
0009720000
0055800000
0097200000
0558000000
0972000000
5580000000
9720000000
ENDCHAR
STARTCHAR gravecomb.case
ENCODING -1
SWIDTH 0 0
DWIDTH 0 0
BBX 4 4 1 17
BITMAP
9730
4690
0964
0369
ENDCHAR
STARTCHAR greater.case
ENCODING -1
SWIDTH 677 0
DWIDTH 12 0
BBX 12 13 0 0
BITMAP
371000000000
249500000000
178593000000
294866810000
006849587000
000187695950
000024957752
001875457100
069495860000
258769200000
385940000000
196000000000
210000000000
ENDCHAR
STARTCHAR guillemotleft.case
ENCODING -1
SWIDTH 666 0
DWIDTH 12 0
BBX 12 10 0 2
BITMAP
000071000080
002941002940
038591047680
173672264581
159430159420
095850195940
186861276760
029491039590
000860001860
000041000050
ENDCHAR
STARTCHAR guillemotright.case
ENCODING -1
SWIDTH 666 0
DWIDTH 12 0
BBX 12 10 0 2
BITMAP
180000270000
149200149200
085840195830
186462276371
024951034950
049591058680
167672268681
095930195920
068100067000
150000240000
ENDCHAR
STARTCHAR guilsinglleft.case
ENCODING -1
SWIDTH 338 0
DWIDTH 6 0
BBX 6 10 0 2
BITMAP
000071
002941
038591
173672
159430
095850
186861
029491
000860
000041
ENDCHAR
STARTCHAR guilsinglright.case
ENCODING -1
SWIDTH 338 0
DWIDTH 6 0
BBX 6 10 0 2
BITMAP
180000
149200
085840
186462
024951
049591
167672
095930
068100
150000
ENDCHAR
STARTCHAR hyphen.case
ENCODING -1
SWIDTH 445 0
DWIDTH 8 0
BBX 8 3 0 6
BITMAP
19999991
19999991
19999991
ENDCHAR
STARTCHAR less.case
ENCODING -1
SWIDTH 677 0
DWIDTH 12 0
BBX 12 13 0 1
BITMAP
000000000002
000000000592
000000039674
000001876944
000049595871
001662769200
166859530000
039587692000
000595957710
000017759494
000000296782
000000004953
000000000064
ENDCHAR
STARTCHAR logicalnot.case
ENCODING -1
SWIDTH 618 0
DWIDTH 11 0
BBX 11 7 0 2
BITMAP
199999999920
199999999920
199999999920
000000011100
000000088530
000000088530
000000088530
ENDCHAR
STARTCHAR uni00B5.case
ENCODING -1
SWIDTH 792 0
DWIDTH 14 0
BBX 14 20 0 -4
BITMAP
17880000358800
17880000358800
17880000358800
17880000358800
17880000358800
17880000358800
17880000358800
17880000358800
17880000358800
17880000358800
17880000358800
17880000666800
17883002985450
17883988859267
17884888493677
17885888810697
17880000000000
17880000000000
17880000000000
16880000000000
ENDCHAR
STARTCHAR minus.case
ENCODING -1
SWIDTH 618 0
DWIDTH 11 0
BBX 11 3 0 6
BITMAP
199999999920
199999999920
199999999920
ENDCHAR
STARTCHAR multiply.case
ENCODING -1
SWIDTH 580 0
DWIDTH 10 0
BBX 10 10 1 3
BITMAP
0000000100
0230007520
08B3075941
76A6759480
0837594800
0075948000
0759485300
759483AB30
1848086920
0070007100
ENDCHAR
STARTCHAR nine.case
ENCODING -1
SWIDTH 558 0
DWIDTH 10 0
BBX 10 16 0 -2
BITMAP
0039889400
0476996650
0986886881
4679009755
6557006557
6469006558
3594886558
0918986558
0292006558
0017886558
0000006558
3334006557
5579009755
1886886881
0566996650
0049889400
ENDCHAR
STARTCHAR numbersign.case
ENCODING -1
SWIDTH 776 0
DWIDTH 14 0
BBX 14 16 0 0
BITMAP
00026880088710
00045780088800
00065580145500
03785569999991
00087540000000
03588639999991
03488839999991
00178800333100
00134400888000
19999994788430
19999994688630
19999995568730
00111007557000
00887108755000
00888008862000
02688008880000
ENDCHAR
STARTCHAR one.case
ENCODING -1
SWIDTH 378 0
DWIDTH 7 0
BBX 6 16 0 0
BITMAP
693888
693888
000888
693888
000888
000888
000888
000888
000888
000888
000888
000888
000888
000888
000888
000888
ENDCHAR
STARTCHAR onehalf.case
ENCODING -1
SWIDTH 735 0
DWIDTH 13 0
BBX 13 16 0 0
BITMAP
19468000085500
19468000279000
00268000855000
00268002790000
00268008550000
00268027900000
00268085500000
00011279000000
00000855399700
00002790969630
00008550229540
00027900075910
00085500355300
00279000999920
00855000999920
02790000000000
ENDCHAR
STARTCHAR onequarter.case
ENCODING -1
SWIDTH 722 0
DWIDTH 13 0
BBX 13 16 0 0
BITMAP
19468000085500
19468000279000
00268000855000
00268002790000
00268008550000
00268027900000
00268085500000
00011279000000
00000855098100
00002790558000
00008550972000
00027901454310
00085504968710
00279004968710
00855000008710
02790000000000
ENDCHAR
STARTCHAR uni00B9.case
ENCODING -1
SWIDTH 306 0
DWIDTH 6 0
BBX 5 8 0 8
BITMAP
194680
194680
002680
002680
002680
002680
002680
000110
ENDCHAR
STARTCHAR ordfeminine.case
ENCODING -1
SWIDTH 456 0
DWIDTH 8 0
BBX 7 7 1 9
BITMAP
008A2000
04587000
08698000
08786200
45BA5700
85998800
87007620
ENDCHAR
STARTCHAR ordmasculine.case
ENCODING -1
SWIDTH 489 0
DWIDTH 9 0
BBX 8 8 0 8
BITMAP
00599930
05678793
09710369
17700078
08710368
09178618
038101A1
00389810
ENDCHAR
STARTCHAR paragraph.case
ENCODING -1
SWIDTH 893 0
DWIDTH 16 0
BBX 16 16 0 0
BITMAP
0049999999999991
0678999999999991
1892000000000000
6656999999999991
8548000033350541
7478000055680862
5498999955680862
0918999955680862
0481000055680862
0028999955680862
0000000055680862
0000000055680862
0000000055680862
0000000055680862
0000000055680862
0000000055680862
ENDCHAR
STARTCHAR parenleft.case
ENCODING -1
SWIDTH 290 0
DWIDTH 5 0
BBX 6 18 0 -1
BITMAP
008767
009981
056780
087650
088810
178800
457800
555800
655700
655700
555800
457800
178800
088810
087650
056780
009981
008767
ENDCHAR
STARTCHAR parenright.case
ENCODING -1
SWIDTH 290 0
DWIDTH 5 0
BBX 6 18 -1 -3
BITMAP
478900
098720
066680
027890
008872
008755
007557
005568
004578
004578
005568
007557
008655
008872
027890
066680
098730
478900
ENDCHAR
STARTCHAR percent.case
ENCODING -1
SWIDTH 827 0
DWIDTH 15 0
BBX 15 16 0 0
BITMAP
0298960000559730
1958765000974800
5580279007489100
6550088018857000
4680379084790000
0979883379650000
0178830955900000
0000005597300000
0000469730000000
0000974804887000
0006588158997900
0019847098209720
0084790088007550
0279550098109630
0956900075884A00
4697300007889100
ENDCHAR
STARTCHAR period.case
ENCODING -1
SWIDTH 262 0
DWIDTH 5 0
BBX 4 4 0 0
BITMAP
0111
1788
1788
1788
ENDCHAR
STARTCHAR periodcentered.case
ENCODING -1
SWIDTH 262 0
DWIDTH 5 0
BBX 4 4 0 6
BITMAP
0111
1788
1788
1788
ENDCHAR
STARTCHAR plus.case
ENCODING -1
SWIDTH 616 0
DWIDTH 11 0
BBX 11 10 0 3
BITMAP
000077700000
000088800000
000088800000
000088800000
199488839920
199488839920
199488839920
000088800000
000088800000
000088800000
ENDCHAR
STARTCHAR plusminus.case
ENCODING -1
SWIDTH 618 0
DWIDTH 11 0
BBX 11 14 0 0
BITMAP
000077700000
000088800000
000088800000
000088800000
199488839920
199488839920
199488839920
000088800000
000088800000
000088800000
000000000000
199999999920
199999999920
199999999920
ENDCHAR
STARTCHAR question.case
ENCODING -1
SWIDTH 598 0
DWIDTH 11 0
BBX 10 16 0 0
BITMAP
0018999700
01A5998590
0859898A55
0897206678
1455001788
0000006388
0000066748
0000467682
0000966930
0000897300
0001688000
0001455000
0000122000
0001788000
0001788000
0001788000
ENDCHAR
STARTCHAR questiondown.case
ENCODING -1
SWIDTH 598 0
DWIDTH 11 0
BBX 10 16 0 -5
BITMAP
0001788000
0001788000
0001788000
0000122000
0000555000
0001788000
0006488000
0067848000
0468592000
0864830000
0786300000
1788001455
0897205578
0859897A56
01A5998590
0018999700
ENDCHAR
STARTCHAR quotedbl.case
ENCODING -1
SWIDTH 464 0
DWIDTH 8 0
BBX 8 6 0 10
BITMAP
85550888
85550888
85550888
85550888
85550888
10000111
ENDCHAR
STARTCHAR quotedblbase.case
ENCODING -1
SWIDTH 464 0
DWIDTH 8 0
BBX 8 6 0 -2
BITMAP
85550888
85550888
85550888
15550188
05550088
00000011
ENDCHAR
STARTCHAR quotedblleft.case
ENCODING -1
SWIDTH 464 0
DWIDTH 8 0
BBX 8 6 0 8
BITMAP
10000110
85300880
85310881
85550888
85550888
85550888
ENDCHAR
STARTCHAR quotedblright.case
ENCODING -1
SWIDTH 464 0
DWIDTH 8 0
BBX 8 6 0 10
BITMAP
85550888
85550888
85550888
15550188
05550088
00000011
ENDCHAR
STARTCHAR quoteleft.case
ENCODING -1
SWIDTH 212 0
DWIDTH 4 0
BBX 4 6 0 8
BITMAP
1000
8530
8531
8555
8555
8555
ENDCHAR
STARTCHAR quoteright.case
ENCODING -1
SWIDTH 212 0
DWIDTH 4 0
BBX 4 5 0 11
BITMAP
8555
8555
8555
1555
0555
ENDCHAR
STARTCHAR quotesinglbase.case
ENCODING -1
SWIDTH 212 0
DWIDTH 4 0
BBX 4 5 0 -1
BITMAP
8555
8555
8555
1555
0555
ENDCHAR
STARTCHAR quotesingle.case
ENCODING -1
SWIDTH 212 0
DWIDTH 4 0
BBX 4 6 0 10
BITMAP
8555
8555
8555
8555
8555
1000
ENDCHAR
STARTCHAR registered.case
ENCODING -1
SWIDTH 895 0
DWIDTH 16 0
BBX 16 16 0 0
BITMAP
0000288888820000
0006848888587000
0076861000595800
0379200000019640
0964067888503790
1790088889730963
5570088006550556
6550088889920358
65500888CB400358
5570088074600556
1790088027900963
0964066007613790
0379200000029640
0076861000595800
0006848888577000
0000288888820000
ENDCHAR
STARTCHAR uni030A.case
ENCODING -1
SWIDTH 0 0
DWIDTH 0 0
BBX 4 4 1 17
BITMAP
4A91
9018
9018
4991
ENDCHAR
STARTCHAR section.case
ENCODING -1
SWIDTH 645 0
DWIDTH 12 0
BBX 11 20 0 -3
BITMAP
000389996100
007AA9999930
037969985790
075580015200
074789510000
037694498100
006726984900
01738872A640
0858642A5570
098640065580
088720669550
094899523800
039388997000
003A51488900
000049947740
000300095570
3498999AA270
091799971730
029400018700
000699983000
ENDCHAR
STARTCHAR semicolon.case
ENCODING -1
SWIDTH 338 0
DWIDTH 6 0
BBX 5 13 1 -2
BITMAP
022100
088630
088630
088630
000000
000000
000000
000000
088810
358800
755800
875400
888100
ENDCHAR
STARTCHAR seven.case
ENCODING -1
SWIDTH 505 0
DWIDTH 9 0
BBX 9 16 0 0
BITMAP
4999999930
4999999930
0000000000
4999999930
0000044310
0000178800
0000556800
0000865600
0000887200
0002688000
0006568000
0008755000
0008881000
0035880000
0075570000
0088540000
ENDCHAR
STARTCHAR six.case
ENCODING -1
SWIDTH 558 0
DWIDTH 10 0
BBX 10 16 0 0
BITMAP
0039889400
0476996660
0976886981
4589009755
6557004334
7557000000
7557887100
7557002930
7557899190
7557784954
7557009647
6557007557
4589009765
0987886890
0576996750
0039889400
ENDCHAR
STARTCHAR slash.case
ENCODING -1
SWIDTH 504 0
DWIDTH 9 0
BBX 9 18 0 -1
BITMAP
0000055790
0000096560
0000088720
0000458900
0000865700
0000886300
0003689000
0008558000
0009854000
0026890000
0075680000
0098550000
0279810000
0656900000
0975600000
1898100000
5579000000
8657000000
ENDCHAR
STARTCHAR uni00AD.case
ENCODING -1
SWIDTH 445 0
DWIDTH 8 0
BBX 8 3 0 6
BITMAP
19999991
19999991
19999991
ENDCHAR
STARTCHAR sterling.case
ENCODING -1
SWIDTH 618 0
DWIDTH 11 0
BBX 11 16 0 0
BITMAP
002899994000
039599967700
097899969630
269910085550
268800011000
044320000000
699999990000
000000000000
699999990000
699999990000
001110000000
085780000000
123210000000
799999999950
799999999950
799999999950
ENDCHAR
STARTCHAR three.case
ENCODING -1
SWIDTH 558 0
DWIDTH 10 0
BBX 10 16 0 0
BITMAP
0049889400
0566996650
1886886881
5579009755
3334007557
0000006656
0000087362
0000002930
0000099190
0000084954
0000009647
3334007557
5579009765
1886886890
0566996750
0049889400
ENDCHAR
STARTCHAR threequarters.case
ENCODING -1
SWIDTH 722 0
DWIDTH 13 0
BBX 12 16 1 0
BITMAP
599400008550
877800027900
113700085500
009500279000
007900855000
977902790000
499408550000
000027900000
000085509810
000279055800
000855097200
002790145431
008550496871
027900496871
085500000871
279000000000
ENDCHAR
STARTCHAR uni00B3.case
ENCODING -1
SWIDTH 332 0
DWIDTH 6 0
BBX 4 7 1 9
BITMAP
5994
8778
1137
0095
0079
9779
4994
ENDCHAR
STARTCHAR tildecomb.case
ENCODING -1
SWIDTH 0 0
DWIDTH 0 0
BBX 8 3 0 17
BITMAP
03980005
09029027
15003991
ENDCHAR
STARTCHAR trademark.case
ENCODING -1
SWIDTH 850 0
DWIDTH 15 0
BBX 15 8 0 7
BITMAP
79999918B2008680
79AA99189A049680
00880008B4896680
008800089977A680
0088000884783680
0088000880702680
0088000880002680
0088000880002680
ENDCHAR
STARTCHAR two.case
ENCODING -1
SWIDTH 558 0
DWIDTH 10 0
BBX 10 16 0 0
BITMAP
0049999300
0576997840
1986997890
5589009854
4335007557
0000009556
0000047954
00002A4790
0000A39650
00084A4900
005694A000
02975A1000
0415320000
1999999991
1999999991
1999999991
ENDCHAR
STARTCHAR uni00B2.case
ENCODING -1
SWIDTH 339 0
DWIDTH 6 0
BBX 6 7 0 9
BITMAP
049960
097881
022972
008490
044620
199991
199991
ENDCHAR
STARTCHAR underscore.case
ENCODING -1
SWIDTH 667 0
DWIDTH 12 0
BBX 12 3 0 0
BITMAP
199999999991
199999999991
199999999991
ENDCHAR
STARTCHAR yen.case
ENCODING -1
SWIDTH 769 0
DWIDTH 14 0
BBX 14 16 0 0
BITMAP
74891000027955
19748000095690
06598200459630
00965900964900
00369646488200
00094692847000
00028956491000
00007489350000
00001663500000
00000433300000
00297855689100
00297855689100
00297855689100
00000855600000
00000855600000
00000855600000
ENDCHAR
STARTCHAR zero.case
ENCODING -1
SWIDTH 558 0
DWIDTH 10 0
BBX 10 16 0 0
BITMAP
0039889400
0476996750
0976886891
4589009755
6557006557
7557006558
7557006558
7557006558
7557006558
7557006558
7557006558
6557006557
4589009755
0987887891
0576996750
0039889400
ENDCHAR
ENDFONT
